<?xml version="1.0" standalone="no"?>
<!DOCTYPE svg PUBLIC "-//W3C//DTD SVG 20010904//EN"
 "http://www.w3.org/TR/2001/REC-SVG-20010904/DTD/svg10.dtd">
<svg version="1.0" xmlns="http://www.w3.org/2000/svg"
 width="64.000000pt" height="64.000000pt" viewBox="0 0 64.000000 64.000000"
 preserveAspectRatio="xMidYMid meet">

<g transform="translate(0.000000,64.000000) scale(0.100000,-0.100000)"
fill="#000000" stroke="none">
<path d="M89 621 l-24 -19 0 -282 0 -282 24 -19 c21 -17 41 -19 231 -19 190 0
210 2 231 19 24 19 24 22 27 239 l3 219 -76 81 -77 82 -158 0 c-140 0 -160 -2
-181 -19z m311 -64 c0 -73 12 -86 85 -89 l60 -3 3 -204 c2 -142 -1 -208 -9
-217 -15 -19 -419 -20 -437 -2 -17 17 -17 539 0 556 8 8 57 12 155 12 l143 0
0 -53z m120 -60 c0 -4 -19 -7 -42 -5 l-43 3 -3 50 -3 50 45 -45 c25 -24 46
-48 46 -53z"/>
<path d="M220 500 c-41 -41 -14 -110 43 -110 58 0 87 70 47 110 -11 11 -31 20
-45 20 -14 0 -34 -9 -45 -20z m78 -42 c5 -39 -30 -56 -58 -28 -28 28 -11 63
28 58 21 -2 28 -9 30 -30z"/>
<path d="M189 351 c-19 -20 -29 -40 -29 -60 l0 -31 105 0 105 0 0 31 c0 20
-10 40 -29 60 -24 24 -38 29 -76 29 -38 0 -52 -5 -76 -29z m133 -18 c36 -33
23 -43 -57 -43 -58 0 -75 3 -75 14 0 43 94 64 132 29z"/>
<path d="M150 185 c0 -13 15 -15 100 -13 134 4 135 22 3 26 -88 2 -103 0 -103
-13z"/>
<path d="M157 124 c-20 -20 7 -24 159 -24 128 0 165 3 162 13 -4 9 -46 13
-159 15 -86 1 -158 -1 -162 -4z"/>
</g>
</svg>
